<svg xmlns="http://www.w3.org/2000/svg" viewBox="0 0 135 40" width="135" height="40">
  <rect width="135" height="40" rx="6" fill="#000" stroke="#A6A6A6" stroke-width="1"/>
  <!-- Apple Logo -->
  <path d="M25.4 19.5c0-2.8 2.3-4.2 2.4-4.3-1.3-1.9-3.3-2.2-4-2.2-1.7-.2-3.3 1-4.2 1-.9 0-2.2-1-3.6-1-1.8 0-3.6 1.1-4.5 2.8-2 3.4-.5 8.4 1.4 11.2.9 1.4 2 2.9 3.5 2.8 1.4-.1 2-.9 3.7-.9s2.2.9 3.7.9c1.5 0 2.5-1.4 3.4-2.7 1.1-1.6 1.5-3.1 1.6-3.2-.1 0-3-1.2-3-4.5zM22.5 11.3c.8-1 1.3-2.3 1.1-3.7-1.1.1-2.6.8-3.4 1.7-.7.8-1.3 2.1-1.1 3.4 1.3.1 2.6-.5 3.4-1.4z" fill="#FFF"/>
  <text x="40" y="14" fill="#FFF" font-family="-apple-system, BlinkMacSystemFont, 'Segoe UI', Roboto" font-size="8">Download on the</text>
  <text x="40" y="27" fill="#FFF" font-family="-apple-system, BlinkMacSystemFont, 'Segoe UI', Roboto" font-weight="bold" font-size="14">App Store</text>
</svg>
