<svg xmlns="http://www.w3.org/2000/svg" viewBox="0 0 160 140" width="100%" height="100%">
  <!-- Retro Flame Bun Logo -->
  <path d="M 20,48 C 24,24 48,10 80,10 C 112,10 136,24 140,48 C 140,51 138,53 134,53 C 110,51 50,51 26,53 C 22,53 20,51 20,48 Z" fill="currentColor" />
  <path d="M 22,92 C 26,116 50,130 80,130 C 110,130 134,116 138,92 C 138,89 136,87 132,87 C 110,89 50,89 28,87 C 24,87 22,89 22,92 Z" fill="currentColor" />
  <text x="80" y="66" fill="currentColor" font-family="'Lilita One', 'Impact', sans-serif" font-weight="900" font-size="22" letter-spacing="1" text-anchor="middle">BURGER</text>
  <text x="80" y="85" fill="currentColor" font-family="'Lilita One', 'Impact', sans-serif" font-weight="900" font-size="22" letter-spacing="1" text-anchor="middle">KING</text>
  <text x="142" y="96" fill="currentColor" font-family="sans-serif" font-size="6" font-weight="bold">TM</text>
</svg>
